<svg width="240" height="240" viewBox="0 0 240 240" fill="none" xmlns="http://www.w3.org/2000/svg">
<path d="M50 106.389H55.2792L59.3725 122.683H59.449V106.389H63.198V133.611H58.8752L53.8255 113.739H53.749V133.611H50V106.389Z" fill="#F24C00"/>
<path d="M72.4465 134C70.4063 134 68.8506 133.417 67.7794 132.25C66.7083 131.057 66.1727 129.359 66.1727 127.156V106.389H70.3808V127.467C70.3808 128.4 70.5593 129.074 70.9163 129.489C71.2989 129.904 71.8345 130.111 72.5231 130.111C73.2116 130.111 73.7345 129.904 74.0915 129.489C74.4741 129.074 74.6653 128.4 74.6653 127.467V106.389H78.7204V127.156C78.7204 129.359 78.1848 131.057 77.1137 132.25C76.0425 133.417 74.4868 134 72.4465 134Z" fill="#F24C00"/>
<path d="M85.0074 110.278H80.608V106.389H93.6148V110.278H89.2155V133.611H85.0074V110.278Z" fill="#F24C00"/>
<path d="M95.6522 106.389H101.888C104.056 106.389 105.637 106.907 106.631 107.944C107.626 108.956 108.123 110.524 108.123 112.65V114.322C108.123 117.148 107.205 118.937 105.369 119.689V119.767C106.389 120.078 107.103 120.713 107.511 121.672C107.945 122.631 108.162 123.915 108.162 125.522V130.306C108.162 131.083 108.187 131.719 108.238 132.211C108.289 132.678 108.417 133.144 108.621 133.611H104.336C104.183 133.17 104.081 132.756 104.03 132.367C103.979 131.978 103.954 131.278 103.954 130.267V125.289C103.954 124.044 103.75 123.176 103.341 122.683C102.959 122.191 102.283 121.944 101.314 121.944H99.8603V133.611H95.6522V106.389ZM101.39 118.056C102.232 118.056 102.857 117.835 103.265 117.394C103.699 116.954 103.915 116.215 103.915 115.178V113.078C103.915 112.093 103.737 111.38 103.38 110.939C103.048 110.498 102.513 110.278 101.773 110.278H99.8603V118.056H101.39Z" fill="#F24C00"/>
<path d="M111.081 106.389H115.289V133.611H111.081V106.389Z" fill="#F24C00"/>
<path d="M123.911 134C121.871 134 120.328 133.417 119.283 132.25C118.237 131.057 117.714 129.359 117.714 127.156V125.6H121.693V127.467C121.693 129.23 122.419 130.111 123.873 130.111C124.587 130.111 125.123 129.904 125.48 129.489C125.862 129.048 126.054 128.348 126.054 127.389C126.054 126.248 125.799 125.25 125.289 124.394C124.779 123.513 123.835 122.463 122.458 121.244C120.724 119.689 119.512 118.289 118.823 117.044C118.135 115.774 117.791 114.348 117.791 112.767C117.791 110.615 118.326 108.956 119.397 107.789C120.468 106.596 122.024 106 124.064 106C126.079 106 127.597 106.596 128.617 107.789C129.662 108.956 130.185 110.641 130.185 112.844V113.972H126.207V112.572C126.207 111.639 126.028 110.965 125.671 110.55C125.314 110.109 124.791 109.889 124.103 109.889C122.7 109.889 121.999 110.757 121.999 112.494C121.999 113.48 122.254 114.4 122.764 115.256C123.299 116.111 124.256 117.148 125.633 118.367C127.393 119.922 128.604 121.335 129.267 122.606C129.93 123.876 130.262 125.367 130.262 127.078C130.262 129.307 129.713 131.019 128.617 132.211C127.546 133.404 125.977 134 123.911 134Z" fill="#F24C00"/>
<path d="M132.675 106.389H138.872C140.963 106.389 142.532 106.959 143.577 108.1C144.623 109.241 145.146 110.913 145.146 113.117V115.8C145.146 118.004 144.623 119.676 143.577 120.817C142.532 121.957 140.963 122.528 138.872 122.528H136.883V133.611H132.675V106.389ZM138.872 118.639C139.561 118.639 140.071 118.444 140.402 118.056C140.759 117.667 140.938 117.006 140.938 116.072V112.844C140.938 111.911 140.759 111.25 140.402 110.861C140.071 110.472 139.561 110.278 138.872 110.278H136.883V118.639H138.872Z" fill="#F24C00"/>
<path d="M153.514 134C151.448 134 149.867 133.404 148.77 132.211C147.674 131.019 147.125 129.333 147.125 127.156V112.844C147.125 110.667 147.674 108.981 148.77 107.789C149.867 106.596 151.448 106 153.514 106C155.58 106 157.161 106.596 158.257 107.789C159.354 108.981 159.902 110.667 159.902 112.844V127.156C159.902 129.333 159.354 131.019 158.257 132.211C157.161 133.404 155.58 134 153.514 134ZM153.514 130.111C154.967 130.111 155.694 129.217 155.694 127.428V112.572C155.694 110.783 154.967 109.889 153.514 109.889C152.06 109.889 151.333 110.783 151.333 112.572V127.428C151.333 129.217 152.06 130.111 153.514 130.111Z" fill="#F24C00"/>
<path d="M162.748 106.389H168.984C171.152 106.389 172.733 106.907 173.727 107.944C174.722 108.956 175.219 110.524 175.219 112.65V114.322C175.219 117.148 174.301 118.937 172.465 119.689V119.767C173.485 120.078 174.199 120.713 174.607 121.672C175.041 122.631 175.258 123.915 175.258 125.522V130.306C175.258 131.083 175.283 131.719 175.334 132.211C175.385 132.678 175.513 133.144 175.717 133.611H171.432C171.279 133.17 171.177 132.756 171.126 132.367C171.075 131.978 171.05 131.278 171.05 130.267V125.289C171.05 124.044 170.846 123.176 170.438 122.683C170.055 122.191 169.379 121.944 168.41 121.944H166.956V133.611H162.748V106.389ZM168.487 118.056C169.328 118.056 169.953 117.835 170.361 117.394C170.795 116.954 171.011 116.215 171.011 115.178V113.078C171.011 112.093 170.833 111.38 170.476 110.939C170.144 110.498 169.609 110.278 168.869 110.278H166.956V118.056H168.487Z" fill="#F24C00"/>
<path d="M181.393 110.278H176.993V106.389H190V110.278H185.601V133.611H181.393V110.278Z" fill="#F24C00"/>
</svg>
